<!DOCTYPE svg PUBLIC "-//W3C//DTD SVG 1.1//EN" "http://www.w3.org/Graphics/SVG/1.1/DTD/svg11.dtd">

<!-- Uploaded to: SVG Repo, www.svgrepo.com, Transformed by: SVG Repo Mixer Tools -->
<svg height="800px" width="800px" version="1.1" id="Layer_1" xmlns="http://www.w3.org/2000/svg" xmlns:xlink="http://www.w3.org/1999/xlink" viewBox="0 0 512.158 512.158" xml:space="preserve" fill="#ffffff">

<g id="SVGRepo_bgCarrier" stroke-width="0"/>

<g id="SVGRepo_tracerCarrier" stroke-linecap="round" stroke-linejoin="round"/>

<g id="SVGRepo_iconCarrier"> <g transform="translate(1)"> <path style="fill:transparent;" d="M127.158,302.319c261.973,57.173,375.467-11.947,375.467-11.947v25.6 c-136.533,84.48-365.227,17.92-366.933,17.067l-8.533,8.533H7.691v-42.667h82.773C102.411,298.905,115.211,299.759,127.158,302.319 "/> <path style="fill:transparent;" d="M502.624,290.372c-2.56-16.213-25.6-25.6-25.6-25.6s-137.387-2.56-179.2-51.2 s-85.333-59.733-85.333-59.733l-17.067,17.067C87.904,275.012,24.758,187.972,24.758,187.972 c-32.427,49.493-8.533,110.933-8.533,110.933h74.24c11.947,0,24.747,0.853,36.693,3.413 C389.131,359.492,502.624,290.372,502.624,290.372L502.624,290.372z"/> <path style="fill:transparent;" d="M212.491,153.839l-17.067,17.067C87.904,275.012,24.758,187.972,24.758,187.972 c-32.427,49.493-8.533,110.933-8.533,110.933h74.24c11.947,0,24.747,0.853,36.693,3.413c5.973,0.853,11.947,2.56,17.067,3.413 c1.707-35.84,67.413-46.08,112.64-48.64c23.04-1.707,40.96-20.48,40.96-43.52C256.011,164.079,212.491,153.839,212.491,153.839"/> <g> <path style="fill:#FFFFFF;" d="M42.678,204.185c-11.093-7.68-17.067-16.213-17.067-16.213 c-32.427,49.493-8.533,110.933-8.533,110.933h25.6C42.678,298.905,23.904,250.265,42.678,204.185"/> <path style="fill:#FFFFFF;" d="M92.171,298.905h-0.853H8.544v42.667h25.6v-42.667H92.171z"/> </g> <g> <path style="fill:transparent;" d="M502.624,290.372L502.624,290.372L502.624,290.372L502.624,290.372z"/> <path style="fill:transparent;" d="M451.424,264.772c0,0,23.04,9.387,25.6,25.6l0,0l0,0l0,0c0,0-52.907,32.427-169.813,34.133 c134.827,2.56,195.413-34.133,195.413-34.133c-2.56-16.213-25.6-25.6-25.6-25.6H451.424z"/> <path style="fill:transparent;" d="M477.024,301.465v14.507c-49.493,30.72-110.933,40.96-168.96,42.667 c65.707,1.707,138.24-7.68,194.56-42.667v-25.6C502.624,290.372,494.091,295.492,477.024,301.465"/> </g> <path d="M67.424,273.305c-5.12,0-8.533-3.413-8.533-8.533c0-3.413-6.827-8.533-17.067-8.533c-5.12,0-8.533-3.413-8.533-8.533 c0-5.12,3.413-8.533,8.533-8.533c10.24,0,19.627,3.413,25.6,8.533c5.973-5.12,15.36-8.533,25.6-8.533 c5.12,0,8.533,3.413,8.533,8.533c0,5.12-3.413,8.533-8.533,8.533c-10.24,0-17.067,5.12-17.067,8.533 C75.958,269.892,72.544,273.305,67.424,273.305z"/> <path d="M321.718,367.172c-84.48,0-160.427-18.773-183.467-24.747l-5.12,5.12c-1.707,1.707-3.413,2.56-5.973,2.56H7.691 c-5.12,0-8.533-3.413-8.533-8.533v-42.667c0-5.12,3.413-8.533,8.533-8.533h82.773c13.653,0,26.453,1.707,38.4,4.267 c68.267,14.507,132.267,22.187,190.293,22.187l0,0c122.88,0,178.347-33.28,179.2-33.28c2.56-1.707,5.973-1.707,8.533,0 c2.56,1.707,4.267,4.267,4.267,7.68v25.6c0,2.56-1.707,5.973-4.267,6.827C459.958,352.665,397.664,367.172,321.718,367.172z M135.691,324.505c0.853,0,1.707,0,1.707,0c15.36,4.267,94.72,25.6,183.467,25.6c70.827,0,128.853-12.8,172.373-39.253v-6.827 c-23.893,10.24-80.213,29.013-174.933,29.013l0,0c-59.733,0-124.587-7.68-193.707-22.187c-11.093-2.56-23.04-3.413-34.987-3.413 H16.224v25.6h107.52l5.973-5.973C131.424,325.359,133.131,324.505,135.691,324.505z"/> <path d="M319.158,333.039c-59.733,0-124.587-7.68-193.707-22.187c-11.093-2.56-23.04-3.413-34.987-3.413h-74.24l0,0 c-3.413,0-6.827-1.707-7.68-5.12c0-0.853-25.6-64.853,9.387-118.613c0.853-2.56,3.413-4.267,6.827-4.267 c2.56,0,5.12,0.853,6.827,3.413c0,0,23.04,30.72,63.147,30.72c29.867,0,61.44-16.213,94.72-48.64l17.067-17.067 c1.707-2.56,5.12-3.413,7.68-2.56c1.707,0.853,46.933,11.947,89.6,62.293c39.253,46.08,172.373,48.64,173.227,48.64 c0.853,0,2.56,0,3.413,0.853c2.56,0.853,26.453,11.947,30.72,31.573c0,0.853,0,1.707,0,2.56c0,3.413-1.707,6.827-5.12,7.68 C497.504,303.172,438.624,333.039,319.158,333.039z M90.464,290.372c13.653,0,26.453,1.707,38.4,4.267 c68.267,14.507,132.267,22.187,190.293,22.187c98.987,0,154.453-21.333,172.373-29.867c-4.267-5.973-11.947-10.24-17.067-12.8 c-17.067-0.853-141.653-5.12-183.467-53.76c-31.573-37.547-64.853-51.2-76.8-55.467l-13.653,13.653 c-35.84,34.133-71.68,52.053-105.813,52.053c-33.28,0-56.32-17.067-68.267-28.16c-17.067,34.987-8.533,74.24-4.267,87.893H90.464z"/> <path d="M229.558,196.505c-2.56,0-4.267-0.853-5.973-2.56c-3.413-3.413-3.413-8.533,0-11.947l17.067-17.067 c3.413-3.413,8.533-3.413,11.947,0c3.413,3.413,3.413,8.533,0,11.947l-17.067,17.067 C233.824,195.652,232.118,196.505,229.558,196.505z"/> <path d="M255.158,222.105c-2.56,0-4.267-0.853-5.973-2.56c-3.413-3.413-3.413-8.533,0-11.947l21.333-21.333 c3.413-3.413,8.533-3.413,11.947,0c3.413,3.413,3.413,8.533,0,11.947l-21.333,21.333 C259.424,221.252,257.718,222.105,255.158,222.105z"/> <path d="M144.224,314.265c-0.853,0-0.853,0-1.707,0l1.707-8.533l-1.707,8.533c-5.973-0.853-11.093-2.56-17.067-3.413 c-11.093-2.56-23.04-3.413-34.987-3.413h-74.24l0,0c-3.413,0-6.827-2.56-7.68-5.12c-1.707-3.413-25.6-66.56,9.387-118.613 c0.853-2.56,3.413-4.267,6.827-4.267c2.56,0,5.12,0.853,6.827,3.413c0,0,23.04,30.72,63.147,30.72 c29.867,0,61.44-16.213,94.72-48.64l17.067-17.067c1.707-2.56,5.12-3.413,7.68-2.56c1.707,0.853,46.933,11.947,89.6,62.293 c1.707,1.707,2.56,4.267,2.56,5.973c0,27.307-21.333,50.347-48.64,52.053c-65.707,4.267-104.107,18.773-104.96,40.96 c0,2.56-0.853,5.12-3.413,5.973C148.491,314.265,145.931,314.265,144.224,314.265z M90.464,290.372 c13.653,0,26.453,1.707,38.4,4.267c2.56,0.853,5.973,0.853,8.533,1.707c11.093-33.28,69.12-44.373,118.613-46.933 c17.067-0.853,31.573-15.36,32.427-32.427c-31.573-34.987-63.147-48.64-74.24-52.907l-13.653,13.653 c-35.84,34.987-71.68,52.907-105.813,52.907c-33.28,0-56.32-17.067-68.267-28.16c-17.067,34.987-8.533,73.387-4.267,87.893H90.464z "/> </g> </g>

</svg>