<svg width="50" height="40" viewBox="0 0 50 40" fill="none" xmlns="http://www.w3.org/2000/svg">
<path d="M18.6948 13.012C19.4872 11.1834 21.2897 10 23.2826 10H42.3841C45.9823 10 48.4025 13.6865 46.9719 16.988L38.3052 36.988C37.5128 38.8166 35.7103 40 33.7174 40H14.6159C11.0177 40 8.59747 36.3135 10.0281 33.012L18.6948 13.012Z" fill="#E6F5FB"/>
<path d="M11.6948 3.01196C12.4872 1.18342 14.2897 0 16.2826 0H35.3841C38.9823 0 41.4025 3.68647 39.9719 6.98804L31.3052 26.988C30.5128 28.8166 28.7103 30 26.7174 30H7.61593C4.01771 30 1.59747 26.3135 3.02815 23.012L11.6948 3.01196Z" fill="#E0C5DC"/>
</svg>
